<svg xmlns="http://www.w3.org/2000/svg" width="106.334" height="44.011" viewBox="0 0 106.334 44.011">
  <g id="그룹_9" data-name="그룹 9" transform="translate(2937.679 -741.184)">
    <path id="패스_7" data-name="패스 7" d="M138.108,12.964c-1.616-2.822-5.737-1.2-5.737-1.2,2.861-.068,2.272,2.121,2.272,2.121-.469,2.428-4.634,4.429-4.634,4.429-4.527,1.9-5.817-.16-5.817-.16-.995-1.571.831-3.761.831-3.761a11.867,11.867,0,0,1,6.556-3.832,9.1,9.1,0,0,1,1.857-.2c.09.008.3-.021.305-.092s-.305-.078-.305-.078a14.617,14.617,0,0,0-5.985,1.152c-4.73,2.019-7.609,5.886-6.434,8.644s5.959,3.352,10.686,1.334c3.407-1.453,5.851-3.872,6.515-6.143a3.163,3.163,0,0,0-.111-2.212" transform="translate(-3018.56 731)" fill="#f38200"/>
    <path id="패스_8" data-name="패스 8" d="M130.408,45.462l2.763-2.3H123.133V60.376c0,3.735-1.4,7.859-6.666,8.793v2.052c9.527-.725,13.94-4.9,13.94-9.777V45.462Z" transform="translate(-3016.347 713.974)" fill="#004b9e"/>
    <path id="패스_9" data-name="패스 9" d="M38.321,43.161V65.27h5.5A1.785,1.785,0,0,0,45.6,63.48V45.462l2.763-2.3Z" transform="translate(-2976 713.974)" fill="#004b9e"/>
    <path id="패스_10" data-name="패스 10" d="M80.41,45.462l2.765-2.3H73.133V65.27h18.1a1.784,1.784,0,0,0,1.775-1.79V62.472H80.41Z" transform="translate(-2993.974 713.974)" fill="#004b9e"/>
    <path id="패스_11" data-name="패스 11" d="M165.056,43.161V65.27h5.5a1.785,1.785,0,0,0,1.776-1.79V45.462l2.763-2.3Z" transform="translate(-3041.434 713.974)" fill="#004b9e"/>
    <path id="패스_12" data-name="패스 12" d="M218.02,43.161V58.182L205.971,43.161h-6.1V65.27h5.5a1.783,1.783,0,0,0,1.776-1.79V50.352L219.117,65.27h4.407a1.786,1.786,0,0,0,1.777-1.79V45.462l2.762-2.3Z" transform="translate(-3059.409 713.974)" fill="#004b9e"/>
  </g>
</svg>
