<svg xmlns="http://www.w3.org/2000/svg" width="97" height="45" viewBox="0 0 97 45">
  <g id="그룹_7574" data-name="그룹 7574" transform="translate(7999 8855)">
    <g id="그룹_7573" data-name="그룹 7573" transform="translate(-7968.321 -8611.184)">
      <path id="패스_3415" data-name="패스 3415" d="M136.568,12.717c-1.472-2.572-5.228-1.095-5.228-1.095,2.607-.062,2.07,1.933,2.07,1.933-.427,2.213-4.223,4.036-4.223,4.036-4.126,1.728-5.3-.145-5.3-.145-.907-1.431.757-3.428.757-3.428a10.814,10.814,0,0,1,5.974-3.492,8.292,8.292,0,0,1,1.693-.183c.082.007.27-.019.278-.084s-.278-.071-.278-.071a13.32,13.32,0,0,0-5.454,1.05c-4.31,1.84-6.934,5.363-5.863,7.877s5.43,3.054,9.738,1.216c3.1-1.324,5.332-3.529,5.937-5.6a2.882,2.882,0,0,0-.1-2.016" transform="translate(-115.213 -254)" fill="#f38200"/>
      <path id="패스_3416" data-name="패스 3416" d="M129.171,45.258l2.518-2.1h-9.147V58.849c0,3.4-1.275,7.161-6.075,8.013v1.87c8.682-.66,12.7-4.463,12.7-8.91V45.258Z" transform="translate(-112.809 -272.548)" fill="#fff"/>
      <path id="패스_3417" data-name="패스 3417" d="M38.321,43.161V63.308h5.014a1.626,1.626,0,0,0,1.618-1.631V45.258l2.518-2.1Z" transform="translate(-69 -272.548)" fill="#fff"/>
      <path id="패스_3418" data-name="패스 3418" d="M79.765,45.258l2.52-2.1H73.133V63.308h16.5a1.625,1.625,0,0,0,1.617-1.631v-.919H79.765Z" transform="translate(-88.518 -272.548)" fill="#fff"/>
      <path id="패스_3419" data-name="패스 3419" d="M165.056,43.161V63.308h5.015a1.627,1.627,0,0,0,1.619-1.631V45.258l2.518-2.1Z" transform="translate(-140.036 -272.548)" fill="#fff"/>
      <path id="패스_3420" data-name="패스 3420" d="M216.41,43.161V56.849L205.43,43.161h-5.559V63.308h5.016a1.625,1.625,0,0,0,1.618-1.631V49.714l10.9,13.595h4.016a1.627,1.627,0,0,0,1.619-1.631V45.258l2.517-2.1Z" transform="translate(-159.599 -272.548)" fill="#fff"/>
    </g>
    <rect id="사각형_1764" data-name="사각형 1764" width="97" height="14" transform="translate(-7999 -8824)" fill="none"/>
  </g>
</svg>
