<svg xmlns="http://www.w3.org/2000/svg" xmlns:xlink="http://www.w3.org/1999/xlink" width="233" height="40" viewBox="0 0 233 40">
  <defs>
    <clipPath id="clip-path">
      <rect id="사각형_1763" data-name="사각형 1763" width="233" height="40" transform="translate(0 0)" fill="#fff"/>
    </clipPath>
  </defs>
  <g id="logo_lotte" clip-path="url(#clip-path)">
    <path id="패스_3861" data-name="패스 3861" d="M11.388,3.824l-8.1,8.194a11.5,11.5,0,0,0,0,16.131l8.1,8.194a11.193,11.193,0,0,0,15.953,0l8.1-8.194a11.5,11.5,0,0,0,0-16.131l-8.1-8.194A11.193,11.193,0,0,0,11.388,3.824Z" transform="translate(-0.083 -0.499)" fill="#da291c"/>
    <path id="패스_3862" data-name="패스 3862" d="M15.19,33.482A1.2,1.2,0,0,1,14,32.321a1.216,1.216,0,0,1,.312-.868,1.174,1.174,0,0,1,.835-.387,1.213,1.213,0,0,1,.1,2.423H15.19Z" transform="translate(-0.707 -1.86)" fill="#fff"/>
    <path id="패스_3863" data-name="패스 3863" d="M19.566,10.089a2.128,2.128,0,0,0-1.608.639c-.921.924-1.405,2.834-1.358,5.368.055,3.126.788,9.267,3.224,12.424a5.368,5.368,0,0,0,1.265,1.216,2.793,2.793,0,0,0,1.663.568,3.82,3.82,0,0,0,.648-.063c1.4-.339,3.146-1.91,4.442-4a1.068,1.068,0,0,1,.913-.505,1.044,1.044,0,0,1,.57.166,1.091,1.091,0,0,1,.336,1.5c-1.647,2.644-3.817,4.5-5.808,4.965a.137.137,0,0,0-.047.008,5.626,5.626,0,0,1-1.069.1,4.931,4.931,0,0,1-2.834-.923,7.481,7.481,0,0,1-1.772-1.7C14.7,25.4,14.468,17.067,14.453,16.128c-.039-2.218.281-5.225,1.991-6.946a4.244,4.244,0,0,1,3.115-1.263h.2a4.262,4.262,0,0,1,3.123,1.263c1.717,1.721,2.03,4.728,1.991,6.946a22.7,22.7,0,0,1-2.826,10.806,1.068,1.068,0,0,1-1.468.379,1.106,1.106,0,0,1-.375-1.492,19.055,19.055,0,0,0,2.529-9.733c.039-2.542-.437-4.444-1.358-5.367a2.17,2.17,0,0,0-1.608-.639h-.187Z" transform="translate(-0.727 -0.83)" fill="#fff"/>
    <path id="패스_3864" data-name="패스 3864" d="M83.423,12.156V29h2.49V12.156Zm-3.989,6.078H76.319v1.5h3.115v3.544a4.828,4.828,0,0,1-1.959.371H73.93a.61.61,0,0,1-.6-.608V14.651H77.88V13.435H70.753V23.649a1.2,1.2,0,0,0,1.194,1.208h5.527a3.689,3.689,0,0,0,1.959-.434v4.562h2.49V12.156h-2.49Z" transform="translate(-3.233 -1.019)" fill="#fff"/>
    <path id="패스_3865" data-name="패스 3865" d="M60.094,21.065V19.408h5.48V18.2H55.254a.6.6,0,0,1-.6-.608V16.535h10.7V12.454H52.085v1.208h10.7v1.65h-10.7v2.881A1.2,1.2,0,0,0,53.279,19.4h4.239v1.658H50.687v1.216H66.972V21.057H60.1Zm.07,1.989H57.276c-.765,3.2-4.512,4.815-5.894,5.02l.718,1.073A12.419,12.419,0,0,0,58.72,25.6a12.393,12.393,0,0,0,6.62,3.552l.718-1.073C64.684,27.869,60.929,26.259,60.164,23.054Z" transform="translate(-2.34 -1.032)" fill="#fff"/>
    <path id="패스_3866" data-name="패스 3866" d="M99.463,18.456H98.144a9.018,9.018,0,0,1-.3,2.1,5.429,5.429,0,0,1-.788,1.721,3.954,3.954,0,0,1-1.3,1.168,3.684,3.684,0,0,1-1.827.434,3.9,3.9,0,0,1-1.913-.45,3.836,3.836,0,0,1-1.335-1.224,5.38,5.38,0,0,1-.773-1.792,9.173,9.173,0,0,1-.25-2.163,9.477,9.477,0,0,1,.25-2.187,5.514,5.514,0,0,1,.773-1.8A3.754,3.754,0,0,1,93.92,12.6a3.841,3.841,0,0,1,1.686.355,3.722,3.722,0,0,1,1.249.979,4.806,4.806,0,0,1,.82,1.46,8.218,8.218,0,0,1,.421,1.816h1.382V12.181h2.42V29.018h-2.42V18.449Zm-5.55,4.184a1,1,0,0,0,.734-.347,2.89,2.89,0,0,0,.562-.939,6.267,6.267,0,0,0,.351-1.4,11.822,11.822,0,0,0,.125-1.7,11.265,11.265,0,0,0-.133-1.737,6.765,6.765,0,0,0-.367-1.405,2.846,2.846,0,0,0-.562-.931.967.967,0,0,0-.718-.339,1.01,1.01,0,0,0-.757.339,2.7,2.7,0,0,0-.546.931,6.706,6.706,0,0,0-.343,1.405,12.1,12.1,0,0,0-.125,1.737,10.66,10.66,0,0,0,.125,1.7,6.878,6.878,0,0,0,.343,1.4,2.876,2.876,0,0,0,.546.939,1.019,1.019,0,0,0,.757.347Zm9.313-10.451h2.459V29.026h-2.459V12.189Z" transform="translate(-4.074 -1.02)" fill="#fff"/>
    <path id="패스_3867" data-name="패스 3867" d="M113.146,22.238a.975.975,0,0,0,.078.41q.07.189.538.189h6.277c.421,0,.843-.024,1.265-.063a2.452,2.452,0,0,0,.952-.253v-4.31h-4.637V16.973h4.637V12.189h2.514V29.026h-2.514v-5.3a2.593,2.593,0,0,1-1.062.3c-.421.039-.8.055-1.14.055h-8.142a1.4,1.4,0,0,1-.719-.15.989.989,0,0,1-.375-.387,1.26,1.26,0,0,1-.14-.505c-.015-.182-.015-.347-.015-.5V12.805h2.475v9.441Z" transform="translate(-5.01 -1.02)" fill="#fff"/>
    <path id="패스_3868" data-name="패스 3868" d="M129.085,12.821h10.187v1.224h-3.778v2.281a7.6,7.6,0,0,0,.421,2.573,8.554,8.554,0,0,0,1.077,2.1,7.635,7.635,0,0,0,1.475,1.571,6.713,6.713,0,0,0,1.608.987l-.929.924a5.948,5.948,0,0,1-1.093-.426,10.14,10.14,0,0,1-1.335-.789,10.837,10.837,0,0,1-1.342-1.113,6.836,6.836,0,0,1-1.116-1.405,7.626,7.626,0,0,1-1.093,1.35,12.021,12.021,0,0,1-1.312,1.121,10.116,10.116,0,0,1-1.311.821,4.941,4.941,0,0,1-1.108.442l-.93-.924a6.151,6.151,0,0,0,1.593-.987,7.566,7.566,0,0,0,1.382-1.555,8.048,8.048,0,0,0,1.335-4.468v-2.5h-3.724V12.821Zm12.591-.639h2.514v16.86h-2.514Z" transform="translate(-5.804 -1.02)" fill="#fff"/>
    <path id="패스_3869" data-name="패스 3869" d="M150.5,24.274a1.527,1.527,0,0,1-1.171-.41,1.571,1.571,0,0,1-.39-1.113V12.8h9.094v4.768h3.2V12.181h2.5V29.018h-2.5V18.843h-3.2v5.423H150.51Zm.913-1.673a.5.5,0,0,0,.094.324.428.428,0,0,0,.352.11h3.724V14.052h-4.176V22.6Z" transform="translate(-6.713 -1.02)" fill="#fff"/>
    <path id="패스_3870" data-name="패스 3870" d="M180.746,12.18H183.3V29.017h-2.552V24.154a3.232,3.232,0,0,1-.563.15c-.21.039-.429.071-.663.095s-.461.047-.687.055-.445.016-.64.016h-8.235a1.151,1.151,0,0,1-.828-.332,1.085,1.085,0,0,1-.343-.8V12.812H177.8v1.239h-6.557v3.726h5.995v1.239h-5.995v3.615a.558.558,0,0,0,.163.41.587.587,0,0,0,.43.166h6.354c.172,0,.367,0,.586-.016s.444-.032.679-.055.468-.055.687-.095a4.476,4.476,0,0,0,.592-.134V12.148Z" transform="translate(-7.597 -1.018)" fill="#fff"/>
    <path id="패스_3871" data-name="패스 3871" d="M196.74,18.892h-5.979v3.671c0,.45.195.679.593.679h6.331c.163,0,.351,0,.577-.016s.453-.032.687-.055.469-.055.687-.095a3.41,3.41,0,0,0,.593-.15V12.206H202.7V29.027H200.23V24.188a4.271,4.271,0,0,1-.562.134c-.226.039-.461.071-.71.095s-.5.047-.758.055-.492.016-.719.016h-7.954a1.2,1.2,0,0,1-1.022-.355,1.443,1.443,0,0,1-.258-.868V17.653h5.979V14.077h-5.979V12.837h8.478V18.9Z" transform="translate(-8.463 -1.021)" fill="#fff"/>
    <path id="패스_3872" data-name="패스 3872" d="M212.03,12.023a6.462,6.462,0,0,1,1.819.245,5.1,5.1,0,0,1,1.491.695,3.993,3.993,0,0,1,1.062,1.089,3.516,3.516,0,0,1,.531,1.429h2.795V12.165H222.2v8.549h-2.475V16.736h-2.795a3.474,3.474,0,0,1-.531,1.429,4.036,4.036,0,0,1-1.069,1.089,5,5,0,0,1-1.491.695,6.354,6.354,0,0,1-1.8.245,6.279,6.279,0,0,1-1.967-.292,4.858,4.858,0,0,1-1.561-.829,3.854,3.854,0,0,1-1.03-4.633,3.9,3.9,0,0,1,1.03-1.31,4.581,4.581,0,0,1,1.561-.837A6.276,6.276,0,0,1,212.037,12Zm0,1.239a2.2,2.2,0,0,0-1.827.8,3.291,3.291,0,0,0-.632,2.1,4,4,0,0,0,.132.963,2.746,2.746,0,0,0,.422.923,2.361,2.361,0,0,0,.757.687,2.22,2.22,0,0,0,1.14.276,2.467,2.467,0,0,0,1.054-.213,2.117,2.117,0,0,0,.765-.592,2.784,2.784,0,0,0,.468-.892,4.046,4.046,0,0,0,.156-1.137,3.423,3.423,0,0,0-.593-2.1,2.12,2.12,0,0,0-1.827-.8Zm7.7,11.564V22.908h-9.891V21.645H222.2v4.389h-9.875V27.5a.51.51,0,0,0,.094.324.427.427,0,0,0,.351.11H222.5v1.239H211.413a1.4,1.4,0,0,1-1.561-1.523V24.826Z" transform="translate(-9.302 -1.012)" fill="#fff"/>
    <path id="패스_3873" data-name="패스 3873" d="M243.214,24.563V25.8H226.336V24.563Zm-13.778-5.178a9.966,9.966,0,0,0,1.842-1.452,7.644,7.644,0,0,0,1.311-1.721,4.027,4.027,0,0,0,.539-1.8h-5.012V13.165h13.021v1.247h-5.106a4.138,4.138,0,0,0,.539,1.887,7.554,7.554,0,0,0,1.359,1.752,10.283,10.283,0,0,0,1.881,1.421,8.335,8.335,0,0,0,2.123.892l-.741,1.058a10.222,10.222,0,0,1-1.608-.41,10.369,10.369,0,0,1-1.78-.8,11.607,11.607,0,0,1-1.733-1.2,9.153,9.153,0,0,1-1.491-1.579,7.95,7.95,0,0,1-1.413,1.5,13.634,13.634,0,0,1-1.749,1.216,11.9,11.9,0,0,1-1.8.86,7.617,7.617,0,0,1-1.554.426l-.741-1.058a9.466,9.466,0,0,0,2.115-.979Z" transform="translate(-10.158 -1.064)" fill="#fff"/>
  </g>
</svg>
