<?xml version="1.0" encoding="utf-8"?>
<!-- Generator: Adobe Illustrator 28.1.0, SVG Export Plug-In . SVG Version: 6.00 Build 0)  -->
<svg version="1.1" id="레이어_1" xmlns="http://www.w3.org/2000/svg" xmlns:xlink="http://www.w3.org/1999/xlink" x="0px"
	 y="0px" viewBox="0 0 70 70" style="enable-background:new 0 0 70 70;" xml:space="preserve">
<style type="text/css">
	.st0{fill:#3E6FB6;}
	.st1{enable-background:new    ;}
	.st2{fill:#FFFFFF;}
</style>
<rect class="st0" width="70" height="70"/>
<g class="st1">
	<path class="st2" d="M12.3,10.5h12.1v3.2h-8.5V17h7.8v3.2h-7.8v3.5h8.7v3.2H12.3V10.5z"/>
	<path class="st2" d="M40.3,13.7H35v13.1h-3.6V13.7h-5.3v-3.2h14.2V13.7z"/>
	<path class="st2" d="M40.8,18.6c0-4.9,3.7-8.6,8.7-8.6c4.5,0,7.5,2.7,8.1,6.1H54c-0.4-1.6-2-2.8-4.4-2.8c-3,0-5.2,2.2-5.2,5.2
		c0,3,2.2,5.2,5.2,5.2c2.3,0,4.3-1.5,4.5-3h3.7c-0.5,3.3-3.8,6.4-8.3,6.4C44.5,27.2,40.8,23.6,40.8,18.6z"/>
</g>
<path class="st2" d="M14.5,36.6c-1.1,0-2.1,0.7-2.1,1.6c0,0.9,0.9,1.6,2.1,1.6H56c1.1,0,2.1-0.7,2.1-1.6c0-0.9-0.9-1.6-2.1-1.6H14.5
	z"/>
<path class="st2" d="M14.5,46.7c-1.1,0-2.1,0.7-2.1,1.6c0,0.9,0.9,1.6,2.1,1.6H56c1.1,0,2.1-0.7,2.1-1.6c0-0.9-0.9-1.6-2.1-1.6H14.5
	z"/>
<path class="st2" d="M14.1,56.9c-0.9,0-1.7,0.7-1.7,1.6c0,0.9,0.7,1.6,1.7,1.6h33.3c0.9,0,1.7-0.7,1.7-1.6c0-0.9-0.7-1.6-1.7-1.6
	H14.1z"/>
</svg>
