<?xml version="1.0" encoding="utf-8"?>
<!-- Generator: Adobe Illustrator 28.1.0, SVG Export Plug-In . SVG Version: 6.00 Build 0)  -->
<svg version="1.1" id="레이어_1" xmlns="http://www.w3.org/2000/svg" xmlns:xlink="http://www.w3.org/1999/xlink" x="0px"
	 y="0px" viewBox="0 0 70 70" style="enable-background:new 0 0 70 70;" xml:space="preserve">
<style type="text/css">
	.st0{fill:#E94538;}
	.st1{enable-background:new    ;}
	.st2{fill:#FFFFFF;}
</style>
<rect class="st0" width="70" height="70"/>
<g class="st1">
	<path class="st2" d="M13.4,10.5h6.3c4.2,0,6.7,2.4,6.7,6c0,3.6-2.5,6-6.7,6H17v4.3h-3.6V10.5z M19.5,19.2c2,0,3.2-1,3.2-2.8
		c0-1.8-1.2-2.7-3.2-2.7H17v5.5H19.5z"/>
	<path class="st2" d="M28.3,10.5h6.3c5.4,0,8.7,3.3,8.7,8.2c0,4.8-3.3,8.1-8.7,8.1h-6.3V10.5z M34.7,23.6c3.1,0,5-1.8,5-4.9
		s-1.9-4.9-5-4.9H32v9.9H34.7z"/>
	<path class="st2" d="M45.6,10.5h12v3.2h-8.3v3.7h7.4v3.2h-7.4v6.2h-3.6V10.5z"/>
</g>
<g>
	<path class="st2" d="M20.5,38.2c0-2,1.6-3.6,3.6-3.6h21.8c2,0,3.6,1.6,3.6,3.6v18.2c0,2-1.6,3.6-3.6,3.6H24.1c-2,0-3.6-1.6-3.6-3.6
		V38.2z M38.8,44.2c-0.3-0.4-0.7-0.6-1.1-0.6c-0.4,0-0.9,0.2-1.1,0.6l-4.9,7.2l-1.5-1.9c-0.3-0.3-0.7-0.5-1.1-0.5s-0.8,0.2-1.1,0.5
		L24.4,54c-0.3,0.4-0.4,1-0.2,1.4c0.2,0.5,0.7,0.8,1.2,0.8h5.4h1.8h11.8c0.5,0,1-0.3,1.2-0.7s0.2-1-0.1-1.4L38.8,44.2L38.8,44.2z
		 M26.8,43.7c1.5,0,2.7-1.2,2.7-2.7s-1.2-2.7-2.7-2.7s-2.7,1.2-2.7,2.7C24.1,42.4,25.3,43.7,26.8,43.7z"/>
</g>
</svg>
