<?xml version="1.0" encoding="utf-8"?>
<!-- Generator: Adobe Illustrator 28.1.0, SVG Export Plug-In . SVG Version: 6.00 Build 0)  -->
<svg version="1.1" id="레이어_1" xmlns="http://www.w3.org/2000/svg" xmlns:xlink="http://www.w3.org/1999/xlink" x="0px"
	 y="0px" viewBox="0 0 70 70" style="enable-background:new 0 0 70 70;" xml:space="preserve">
<style type="text/css">
	.st0{fill:#2FA44A;}
	.st1{fill:#FFFFFF;}
	.st2{enable-background:new    ;}
</style>
<rect class="st0" width="70" height="70"/>
<rect x="12.7" y="34.6" class="st1" width="10.3" height="10.3"/>
<rect x="29.8" y="34.6" class="st1" width="10.3" height="10.3"/>
<rect x="47" y="34.6" class="st1" width="10.3" height="10.3"/>
<rect x="47" y="49.7" class="st1" width="10.3" height="10.3"/>
<rect x="29.8" y="49.7" class="st1" width="10.3" height="10.3"/>
<rect x="12.7" y="49.7" class="st1" width="10.3" height="10.3"/>
<g class="st2">
	<path class="st1" d="M18.3,18.6l-5.2-8.1h4.3l3.3,5.3l3.4-5.3h4.1l-5.2,8l5.4,8.3h-4.3l-3.5-5.6l-3.6,5.6h-4.1L18.3,18.6z"/>
	<path class="st1" d="M33.7,10.5v13.1h8.1v3.2H30V10.5H33.7z"/>
	<path class="st1" d="M56.5,15.4h-3.8c-0.2-1.4-1.3-2.3-3-2.3c-1.7,0-2.6,0.7-2.6,1.7c0,1.2,1.3,1.6,4.4,2.3c3.8,0.8,5,2.6,5,5.1
		c0,3.1-2.9,5-6.6,5c-4,0-7-2.2-7.1-5.7h3.7c0.2,1.6,1.6,2.6,3.6,2.6c1.5,0,2.6-0.7,2.6-1.8c0-1.3-1.1-1.8-4-2.4
		c-3.5-0.7-5.5-2.1-5.5-5.2c0-2.9,2.9-4.7,6.6-4.7C53.6,10.1,56.3,12.3,56.5,15.4z"/>
</g>
</svg>
