<svg xmlns="http://www.w3.org/2000/svg" width="84.561" height="35" viewBox="0 0 84.561 35">
  <g id="그룹_7559" data-name="그룹 7559" transform="translate(2937.679 -741.184)">
    <path id="패스_7" data-name="패스 7" d="M134.554,12.395c-1.285-2.244-4.562-.955-4.562-.955,2.275-.054,1.807,1.687,1.807,1.687-.373,1.931-3.685,3.522-3.685,3.522-3.6,1.508-4.626-.127-4.626-.127-.791-1.249.661-2.991.661-2.991a9.437,9.437,0,0,1,5.213-3.048,7.236,7.236,0,0,1,1.477-.16c.071.006.236-.017.243-.073s-.243-.062-.243-.062a11.624,11.624,0,0,0-4.759.916c-3.761,1.606-6.051,4.681-5.116,6.874s4.739,2.665,8.5,1.061c2.71-1.155,4.653-3.08,5.181-4.885a2.516,2.516,0,0,0-.088-1.759" transform="translate(-3026.724 731)" fill="#f38200"/>
    <path id="패스_8" data-name="패스 8" d="M127.553,44.991l2.2-1.83h-7.982v13.69c0,2.97-1.113,6.25-5.3,6.992v1.632c7.576-.576,11.085-3.895,11.085-7.775V44.991Z" transform="translate(-3024.086 710.708)" fill="#004b9e"/>
    <path id="패스_9" data-name="패스 9" d="M38.321,43.161V60.743H42.7a1.419,1.419,0,0,0,1.412-1.423V44.991l2.2-1.83Z" transform="translate(-2976 710.708)" fill="#004b9e"/>
    <path id="패스_10" data-name="패스 10" d="M78.92,44.991l2.2-1.83H73.133V60.743h14.4a1.418,1.418,0,0,0,1.411-1.423v-.8H78.92Z" transform="translate(-2997.421 710.708)" fill="#004b9e"/>
    <path id="패스_11" data-name="패스 11" d="M165.056,43.161V60.743h4.377a1.419,1.419,0,0,0,1.412-1.423V44.991l2.2-1.83Z" transform="translate(-3053.986 710.708)" fill="#004b9e"/>
    <path id="패스_12" data-name="패스 12" d="M214.3,43.161V55.107l-9.582-11.946h-4.851V60.743h4.377a1.418,1.418,0,0,0,1.412-1.423V48.879l9.516,11.864h3.505a1.42,1.42,0,0,0,1.413-1.423V44.991l2.2-1.83Z" transform="translate(-3075.408 710.708)" fill="#004b9e"/>
  </g>
</svg>
