<?xml version="1.0" encoding="utf-8"?>
<!-- Generator: Adobe Illustrator 28.1.0, SVG Export Plug-In . SVG Version: 6.00 Build 0)  -->
<svg version="1.1" id="레이어_1" xmlns="http://www.w3.org/2000/svg" xmlns:xlink="http://www.w3.org/1999/xlink" x="0px"
	 y="0px" viewBox="0 0 286 83.2" style="enable-background:new 0 0 286 83.2;" xml:space="preserve">
<style type="text/css">
	.st0{enable-background:new    ;}
	.st1{fill:#333333;}
	.st2{fill:#F38200;}
</style>
<g id="그룹_7545" transform="translate(-817 -180)">
	<g class="st0">
		<path class="st1" d="M870.1,256c-3.1,0.5-6.8,0.5-9.4,0.5l-0.2-1.2c0.6,0,1.3,0,2,0v-5.8H861v-1.2h8.5v1.2h-1.6v5.6
			c0.7,0,1.4-0.1,2.1-0.2L870.1,256z M874.2,261.6v1.2h-10.8V258h1.5v3.5H874.2z M864,255.3c0.8,0,1.6-0.1,2.4-0.1v-5.7H864V255.3z
			 M872.3,254.4h-2.7v-1.2h2.7v-1.9h-2.7v-1.2h2.7V247h1.5v12h-1.5V254.4z"/>
		<path class="st1" d="M882.1,249.6h4v1.2h-9.5v-1.2h4.1v-2.4h1.5V249.6z M885.3,255.9c0,2.2-1.6,3.7-3.9,3.7
			c-2.3,0-3.9-1.5-3.9-3.7c0-2.2,1.6-3.7,3.9-3.7C883.6,252.1,885.3,253.7,885.3,255.9z M883.9,255.9c0-1.5-1.1-2.5-2.5-2.5
			c-1.5,0-2.5,1-2.5,2.5c0,1.4,1.1,2.5,2.5,2.5C882.8,258.3,883.9,257.3,883.9,255.9z M891.7,254.9H889v8.3h-1.5V247h1.5v6.6h2.6
			V254.9z"/>
		<path class="st1" d="M907.3,259.7v1.2h-14.6v-1.2h5.7v-5.8h1.5v5.8H907.3z M904.1,249.8h-9.8v-1.2h11.3v1.6c0,2,0,4.2-0.6,7.5
			l-1.5-0.2c0.6-3.1,0.6-5.4,0.6-7.3V249.8z"/>
		<path class="st1" d="M915.9,248.5h1.2v10.7h-4.5v-10.7h1.3v4.1h2V248.5z M915.9,253.9h-2v4.2h2V253.9z M921.2,248.5h1.2v10.7H918
			v-10.7h1.2v4.1h1.9V248.5z M921.2,253.9h-1.9v4.2h1.9V253.9z M927.4,254.6h-2.2v8.6h-1.5V247h1.5v6.3h2.2V254.6z"/>
		<path class="st1" d="M943.1,256v1.2h-14.7V256H943.1z M939.8,248.7h-9.5v-1.2h10.9v4h-9.4v1.8h9.8v1.2h-11.2v-4h9.4V248.7z
			 M931.9,261.6h9.7v1.2h-11.2v-4.4h1.5V261.6z"/>
		<path class="st1" d="M957,256.4c-1.8-0.6-3.2-2-3.9-3.7c-0.7,1.8-2.2,3.3-4.1,4l-0.8-1.2c2.4-0.9,4.1-3,4.1-5.3v-0.8h-3.6v-1.2
			h8.6v1.2h-3.5v0.8c0,2.1,1.6,4.1,3.9,5L957,256.4z M962,261.6v1.2h-10.8v-5h1.5v3.8H962z M960,251.5V247h1.5v11.8H960v-6.2h-3.2
			v-1.2H960z"/>
		<path class="st1" d="M969.7,251.9c0,2.6,1.8,5.4,4.2,6.5l-0.8,1.2c-1.8-0.9-3.3-2.8-4.1-5c-0.7,2.4-2.3,4.4-4.1,5.3l-0.9-1.2
			c2.3-1.2,4.2-4.2,4.2-7v-2.1h-3.7v-1.2h8.7v1.2h-3.6V251.9z M979.4,254.8h-2.7v8.4h-1.5V247h1.5v6.5h2.7V254.8z"/>
		<path class="st1" d="M989.2,251.5c0,2.2-1.8,3.7-4.2,3.7c-2.4,0-4.2-1.5-4.2-3.7c0-2.2,1.8-3.7,4.2-3.7
			C987.4,247.8,989.2,249.3,989.2,251.5z M982.2,251.5c0,1.5,1.2,2.5,2.8,2.5c1.6,0,2.8-1,2.8-2.5c0-1.5-1.2-2.5-2.8-2.5
			C983.4,249,982.2,250,982.2,251.5z M984.7,256.5v2h7.5v-2h1.5v6.5h-10.4v-6.5H984.7z M984.7,261.8h7.5v-2.1h-7.5V261.8z
			 M993.7,247v8.7h-1.5V247H993.7z"/>
		<path class="st1" d="M1005.4,255.1c-1.9-0.5-3.3-1.5-4.1-3c-0.7,1.6-2.2,2.7-4.2,3.3l-0.7-1.1c2.4-0.6,4.1-2.3,4.1-4.2v-0.3H997
			v-1.2h3.6v-1.7h1.5v1.7h3.6v1.2h-3.6v0.3c0,1.7,1.6,3.3,4,3.9L1005.4,255.1z M1000.3,261.8h9.4v1.2h-10.8v-4h8.8v-1.5h-8.8v-1.2
			h10.3v3.8h-8.8V261.8z M1011.5,250.6v1.2h-2.4v3.7h-1.5V247h1.5v3.6H1011.5z"/>
		<path class="st1" d="M1018.4,251.3c0,3,1.9,5.9,4.3,7l-0.9,1.2c-1.8-0.9-3.4-2.8-4.2-5.1c-0.7,2.4-2.3,4.4-4.2,5.4l-0.9-1.2
			c2.4-1.1,4.3-4.2,4.3-7.3v-2.9h1.5V251.3z M1025.9,247v16.2h-1.5V247H1025.9z"/>
		<path class="st1" d="M1043.4,259.8v1.2h-14.6v-1.2H1043.4z M1042,256.4c-2.4-0.6-5-2.3-6-4.7c-1,2.4-3.5,4.1-6,4.7l-0.7-1.2
			c2.8-0.6,5.9-3,5.9-5.7v-1.2h1.5v1.2c0,2.8,3.1,5.2,5.9,5.7L1042,256.4z"/>
		<path class="st1" d="M1052.6,255.3c-1.8,0.4-3.4,0.4-5.9,0.4h-1v-7.7h6.1v1.2h-4.7v2h4.1v1.2h-4.1v2.2c2.3,0,3.7-0.1,5.4-0.4
			L1052.6,255.3z M1047.9,257.5h10.6v5.4h-10.6V257.5z M1049.3,261.8h7.7v-3.1h-7.7V261.8z M1054,252.3h-2.1v-1.2h2.1v-3.8h1.4v9.3
			h-1.4V252.3z M1058.5,247v9.7h-1.4V247H1058.5z"/>
	</g>
	<g id="그룹_6" transform="translate(-85 -54.75)">
		<g class="st0">
			<path class="st1" d="M969.6,251v6.6h-16.9V251H969.6z"/>
			<path class="st1" d="M983.1,235.7h15.6c8,0,12.5,4.1,12.5,10.7c0,2.6-1.7,5.5-4.2,6.4c3.4,1.1,5.9,4.4,5.9,7.9
				c0,6.6-4.8,10.9-12.8,10.9h-16.9V235.7z M998.3,250.2c3,0,4.8-1.3,4.8-3.8c0-2.5-1.8-3.9-4.8-3.9h-7.2v7.7H998.3z M999.6,264.7
				c3.2,0,5.1-1.4,5.1-4s-2-4-5.1-4h-8.5v8.1H999.6z"/>
			<path class="st1" d="M1023.5,235.7v35.9h-8v-35.9H1023.5z"/>
			<path class="st1" d="M1027.9,235.7h13.9c11.9,0,19.2,7.3,19.2,18s-7.3,17.9-19.2,17.9h-13.9V235.7z M1041.9,264.5
				c6.9,0,11.1-3.9,11.1-10.8s-4.2-10.9-11.1-10.9h-6v21.7H1041.9z"/>
			<path class="st1" d="M1063.8,235.7h13.9c11.9,0,19.2,7.3,19.2,18s-7.3,17.9-19.2,17.9h-13.9V235.7z M1077.8,264.5
				c6.9,0,11.1-3.9,11.1-10.8s-4.2-10.9-11.1-10.9h-6v21.7H1077.8z"/>
			<path class="st1" d="M1107.8,235.7v35.9h-8v-35.9H1107.8z"/>
			<path class="st1" d="M1112.1,235.7h6.7l17.9,21.6v-22h8v35.9h-6.7l-17.9-21.6v22h-8V235.7z"/>
			<path class="st1" d="M1184.9,246.8h-8.8c-1.5-2.6-4.9-4.7-9.2-4.7c-6.5,0-11.4,4.8-11.4,11.5c0,6.7,4.8,11.6,11.4,11.6
				c5.6,0,9.5-3.4,10.3-7h-11v-6.8h19.5v2.1c0,10.9-8.1,18.8-19,18.8c-11,0-19.2-8-19.2-18.8c0-10.9,8.1-18.8,19.2-18.8
				C1176.1,234.8,1182.8,240,1184.9,246.8z"/>
		</g>
		<g class="st0">
			<path class="st2" d="M941.6,258.4c-6.2,7.2-17.4,16.8-27.5,16.8c-7.4,0-10.9-6.6-11.1-13.4c-0.4-13.4,14.4-27,27.6-26.9
				c3.3,0,7.3,0.8,7.3,4.9c0,5-5,12.5-24.6,19l-0.2,2.2c-0.3,3.9,3.1,5.2,6.3,5.2c7.2,0,15.8-7.4,21.2-11.7L941.6,258.4z M929,242
				c0-0.7-0.5-1.3-1.2-1.1c-5.1,1.3-11,6.2-13.8,13C923,250.7,929.1,243.7,929,242z"/>
		</g>
	</g>
</g>
</svg>
