<svg xmlns="http://www.w3.org/2000/svg" xmlns:xlink="http://www.w3.org/1999/xlink" width="208" height="35" viewBox="0 0 208 35">
  <defs>
    <clipPath id="clip-path">
      <rect id="사각형_1766" data-name="사각형 1766" width="208" height="35" transform="translate(0.293 0.5)" fill="#fff"/>
    </clipPath>
  </defs>
  <g id="logo_lotte" transform="translate(-0.293 -0.5)" clip-path="url(#clip-path)">
    <path id="패스_3887" data-name="패스 3887" d="M10.172,3.468l-7.24,7.32a10.271,10.271,0,0,0,0,14.411l7.24,7.32a10,10,0,0,0,14.253,0l7.24-7.32a10.271,10.271,0,0,0,0-14.411l-7.24-7.32A10,10,0,0,0,10.172,3.468Z" transform="translate(0.003 0.002)" fill="#da291c"/>
    <path id="패스_3888" data-name="패스 3888" d="M15.062,33.224A1.069,1.069,0,0,1,14,32.187a1.087,1.087,0,0,1,.279-.776,1.049,1.049,0,0,1,.746-.346,1.083,1.083,0,0,1,.091,2.165h-.049Z" transform="translate(-2.048 -4.473)" fill="#fff"/>
    <path id="패스_3889" data-name="패스 3889" d="M19.021,9.858a1.9,1.9,0,0,0-1.437.571c-.823.825-1.255,2.532-1.214,4.8.049,2.793.7,8.279,2.88,11.1a4.8,4.8,0,0,0,1.13,1.086,2.5,2.5,0,0,0,1.486.508,3.413,3.413,0,0,0,.579-.056c1.248-.3,2.811-1.707,3.968-3.575a.954.954,0,0,1,.816-.451.933.933,0,0,1,.509.148.975.975,0,0,1,.3,1.34c-1.472,2.363-3.41,4.02-5.189,4.436a.122.122,0,0,0-.042.007,5.026,5.026,0,0,1-.955.092,4.405,4.405,0,0,1-2.532-.825,6.683,6.683,0,0,1-1.583-1.516c-3.062-3.977-3.271-11.425-3.285-12.264-.035-1.982.251-4.668,1.779-6.206a3.791,3.791,0,0,1,2.783-1.128H19.2a3.808,3.808,0,0,1,2.79,1.128c1.534,1.537,1.813,4.224,1.779,6.206a20.281,20.281,0,0,1-2.525,9.654.954.954,0,0,1-1.311.339.988.988,0,0,1-.335-1.333,17.025,17.025,0,0,0,2.26-8.7c.035-2.271-.391-3.97-1.214-4.8A1.939,1.939,0,0,0,19.2,9.851h-.167Z" transform="translate(-2.115 -1.086)" fill="#fff"/>
    <path id="패스_3890" data-name="패스 3890" d="M82.072,12.156V27.206H84.3V12.156Zm-3.564,5.43H75.726v1.34h2.783v3.166a4.314,4.314,0,0,1-1.751.331H73.592a.545.545,0,0,1-.537-.543v-7.5h4.066V13.3H70.753v9.126A1.073,1.073,0,0,0,71.82,23.5h4.938a3.3,3.3,0,0,0,1.751-.388v4.076h2.225V12.156H78.509Z" transform="translate(-10.354 -1.706)" fill="#da291c"/>
    <path id="패스_3891" data-name="패스 3891" d="M59.091,20.148V18.667h4.9V17.588h-9.22a.536.536,0,0,1-.537-.543V16.1h9.562V12.454H51.936v1.079H61.5v1.474H51.936v2.574A1.069,1.069,0,0,0,53,18.66H56.79V20.14h-6.1v1.086H65.236V20.14H59.1Zm.063,1.777H56.574c-.683,2.863-4.031,4.3-5.266,4.485l.642.959A11.1,11.1,0,0,0,57.864,24.2a11.072,11.072,0,0,0,5.914,3.173l.642-.959C63.192,26.227,59.838,24.788,59.154,21.925Z" transform="translate(-7.418 -1.749)" fill="#da291c"/>
    <path id="패스_3892" data-name="패스 3892" d="M98.417,17.788H97.239a8.057,8.057,0,0,1-.272,1.876,4.851,4.851,0,0,1-.7,1.537A3.533,3.533,0,0,1,95.1,22.245a3.292,3.292,0,0,1-1.632.388,3.483,3.483,0,0,1-1.709-.4,3.428,3.428,0,0,1-1.193-1.093,4.806,4.806,0,0,1-.691-1.6A8.2,8.2,0,0,1,89.65,17.6a8.467,8.467,0,0,1,.223-1.954,4.927,4.927,0,0,1,.691-1.608,3.354,3.354,0,0,1,2.9-1.488,3.432,3.432,0,0,1,1.507.317,3.325,3.325,0,0,1,1.116.874,4.294,4.294,0,0,1,.732,1.3,7.343,7.343,0,0,1,.377,1.622h1.234V12.181h2.162V27.223H98.431V17.781Zm-4.959,3.738a.889.889,0,0,0,.656-.31,2.582,2.582,0,0,0,.5-.839,5.6,5.6,0,0,0,.314-1.248,10.562,10.562,0,0,0,.112-1.523,10.064,10.064,0,0,0-.119-1.552A6.044,6.044,0,0,0,94.6,14.8a2.543,2.543,0,0,0-.5-.832.864.864,0,0,0-.642-.3.9.9,0,0,0-.677.3,2.414,2.414,0,0,0-.488.832,5.992,5.992,0,0,0-.307,1.255,10.811,10.811,0,0,0-.112,1.552,9.524,9.524,0,0,0,.112,1.523,6.146,6.146,0,0,0,.307,1.248,2.569,2.569,0,0,0,.488.839.91.91,0,0,0,.677.31Zm8.32-9.337h2.2V27.231h-2.2V12.188Z" transform="translate(-13.12 -1.709)" fill="#da291c"/>
    <path id="패스_3893" data-name="패스 3893" d="M112.882,21.167a.871.871,0,0,0,.07.367q.063.169.481.169h5.608c.376,0,.753-.021,1.13-.056a2.191,2.191,0,0,0,.85-.226V17.57h-4.143V16.463h4.143V12.19h2.246V27.232h-2.246V22.5a2.317,2.317,0,0,1-.948.268c-.376.035-.718.049-1.018.049H111.78a1.247,1.247,0,0,1-.642-.134.884.884,0,0,1-.335-.346,1.125,1.125,0,0,1-.125-.451c-.014-.162-.014-.31-.014-.444v-8.7h2.211v8.434Z" transform="translate(-16.195 -1.711)" fill="#da291c"/>
    <path id="패스_3894" data-name="패스 3894" d="M129.023,12.752h9.1v1.093H134.75v2.038a6.79,6.79,0,0,0,.376,2.3,7.642,7.642,0,0,0,.962,1.876,6.821,6.821,0,0,0,1.318,1.4,6,6,0,0,0,1.437.881l-.83.825a5.314,5.314,0,0,1-.977-.381,9.061,9.061,0,0,1-1.193-.705,9.682,9.682,0,0,1-1.2-.994,6.108,6.108,0,0,1-1-1.255,6.813,6.813,0,0,1-.977,1.206,10.74,10.74,0,0,1-1.172,1,9.038,9.038,0,0,1-1.171.733,4.415,4.415,0,0,1-.99.395l-.831-.825a5.5,5.5,0,0,0,1.423-.881,6.759,6.759,0,0,0,1.234-1.389,7.191,7.191,0,0,0,1.193-3.992V13.845H129.03V12.752Zm11.25-.571h2.246V27.245h-2.246Z" transform="translate(-18.806 -1.709)" fill="#da291c"/>
    <path id="패스_3895" data-name="패스 3895" d="M150.336,22.985a1.365,1.365,0,0,1-1.047-.367,1.4,1.4,0,0,1-.348-.994V12.738h8.125V17h2.86V12.181h2.231V27.223h-2.231v-9.09h-2.86v4.845h-6.723Zm.816-1.5a.447.447,0,0,0,.084.289.383.383,0,0,0,.314.1h3.327V13.852h-3.731V21.49Z" transform="translate(-21.796 -1.709)" fill="#da291c"/>
    <path id="패스_3896" data-name="패스 3896" d="M179.471,12.177h2.28V27.219h-2.28V22.875a2.889,2.889,0,0,1-.5.134c-.188.035-.383.063-.592.085s-.411.042-.614.049-.4.014-.572.014h-7.358a1.028,1.028,0,0,1-.74-.3.969.969,0,0,1-.306-.712V12.741h8.055v1.107h-5.858v3.329h5.356v1.107h-5.356v3.23a.5.5,0,0,0,.146.367.525.525,0,0,0,.384.148h5.677c.154,0,.328,0,.523-.014s.4-.028.607-.049.418-.049.614-.085a4,4,0,0,0,.529-.12V12.148Z" transform="translate(-24.7 -1.705)" fill="#da291c"/>
    <path id="패스_3897" data-name="패스 3897" d="M195.835,18.179h-5.342v3.279c0,.4.174.606.53.606h5.656c.146,0,.313,0,.516-.014s.4-.028.614-.049.419-.049.614-.085a3.047,3.047,0,0,0,.53-.134V12.206h2.211V27.234h-2.211V22.911a3.817,3.817,0,0,1-.5.12c-.2.035-.411.063-.634.085s-.446.042-.677.049-.44.014-.642.014h-7.107a1.075,1.075,0,0,1-.913-.317,1.289,1.289,0,0,1-.23-.776V17.072h5.342V13.877h-5.342V12.77h7.575v5.416Z" transform="translate(-27.548 -1.713)" fill="#da291c"/>
    <path id="패스_3898" data-name="패스 3898" d="M211.5,12.021a5.773,5.773,0,0,1,1.625.219,4.556,4.556,0,0,1,1.332.621,3.567,3.567,0,0,1,.948.973,3.141,3.141,0,0,1,.475,1.276h2.5V12.148h2.211v7.638h-2.211V16.231h-2.5a3.1,3.1,0,0,1-.475,1.276,3.606,3.606,0,0,1-.955.973,4.463,4.463,0,0,1-1.332.621,5.677,5.677,0,0,1-1.612.219,5.609,5.609,0,0,1-1.758-.261,4.34,4.34,0,0,1-1.395-.74,3.444,3.444,0,0,1-.92-4.14,3.488,3.488,0,0,1,.92-1.171,4.092,4.092,0,0,1,1.395-.748A5.607,5.607,0,0,1,211.511,12Zm0,1.107a1.967,1.967,0,0,0-1.632.712,2.94,2.94,0,0,0-.564,1.876,3.574,3.574,0,0,0,.118.86,2.454,2.454,0,0,0,.377.825,2.109,2.109,0,0,0,.676.614,1.984,1.984,0,0,0,1.018.247,2.2,2.2,0,0,0,.942-.19,1.892,1.892,0,0,0,.684-.529,2.488,2.488,0,0,0,.418-.8,3.614,3.614,0,0,0,.139-1.016,3.058,3.058,0,0,0-.53-1.876,1.894,1.894,0,0,0-1.632-.712Zm6.877,10.331V21.746h-8.837V20.617h11.048v3.921H211.77V25.85a.455.455,0,0,0,.084.289.382.382,0,0,0,.313.1h8.69v1.107h-9.9a1.247,1.247,0,0,1-1.395-1.361V23.459Z" transform="translate(-30.308 -1.683)" fill="#da291c"/>
    <path id="패스_3899" data-name="패스 3899" d="M241.415,23.348v1.107H226.336V23.348Zm-12.31-4.626a8.9,8.9,0,0,0,1.646-1.3,6.829,6.829,0,0,0,1.171-1.537,3.6,3.6,0,0,0,.481-1.608h-4.477V13.165H239.56v1.114H235a3.7,3.7,0,0,0,.481,1.685,6.749,6.749,0,0,0,1.214,1.566,9.187,9.187,0,0,0,1.681,1.269,7.447,7.447,0,0,0,1.9.8l-.662.945a9.134,9.134,0,0,1-1.437-.367,9.264,9.264,0,0,1-1.59-.712,10.368,10.368,0,0,1-1.549-1.072,8.177,8.177,0,0,1-1.332-1.41,7.1,7.1,0,0,1-1.263,1.34,12.187,12.187,0,0,1-1.562,1.086,10.636,10.636,0,0,1-1.6.769,6.807,6.807,0,0,1-1.388.381l-.662-.945a8.457,8.457,0,0,0,1.89-.874Z" transform="translate(-33.122 -1.853)" fill="#da291c"/>
  </g>
</svg>
