<svg id="그룹_7575" data-name="그룹 7575" xmlns="http://www.w3.org/2000/svg" xmlns:xlink="http://www.w3.org/1999/xlink" width="82.274" height="27.857" viewBox="0 0 82.274 27.857">
  <defs>
    <clipPath id="clip-path">
      <rect id="사각형_1760" data-name="사각형 1760" width="82.274" height="27.857" fill="none"/>
    </clipPath>
  </defs>
  <g id="그룹_7563" data-name="그룹 7563" clip-path="url(#clip-path)">
    <path id="패스_3823" data-name="패스 3823" d="M430.875,8.61,421.9,25.188c-.113.211-1.116,2.078-1.231,2.269a2.714,2.714,0,0,1-.961.974,2.216,2.216,0,0,1-1.041.294v0h-.119a2.434,2.434,0,0,1-1.158-.3,2.7,2.7,0,0,1-.961-.974c-.116-.192-1.119-2.058-1.233-2.271l-5.868-10.844a2.362,2.362,0,0,0-2.4-1.214h-2.845a4.8,4.8,0,0,0,.555,1.8l9.651,17.833.034.063c.017.03.034.06.055.091.055.1.114.194.187.3l.051.071c.075.106.153.21.223.293l.051.059a4.776,4.776,0,0,0,3.64,1.689h.035a4.773,4.773,0,0,0,3.353-1.37c.1-.1.2-.209.278-.3l.056-.065c.084-.1.162-.206.233-.306.025-.034.05-.069.06-.085.063-.093.121-.188.181-.293l9.739-17.987a4.825,4.825,0,0,0-1.59-6.318" transform="translate(-350.771 -7.474)" fill="#009ece"/>
    <path id="패스_3824" data-name="패스 3824" d="M410.01,8.7l5.87,10.846c.444.827,1.132,2.1,1.212,2.235a1.872,1.872,0,0,0,.667.684,1.6,1.6,0,0,0,.736.181h.011a1.42,1.42,0,0,0,.725-.181,1.868,1.868,0,0,0,.667-.684c.079-.131.768-1.408,1.211-2.234l8.971-16.579a4.826,4.826,0,0,0-6.151,2.127l-5.434,10.042L413.06,5.093a4.816,4.816,0,0,0-9.042,1.953h2.854A3.215,3.215,0,0,1,410.01,8.7" transform="translate(-350.713 -2.23)" fill="#009ece"/>
    <path id="패스_3825" data-name="패스 3825" d="M176.473,42.861a4.825,4.825,0,0,0,4.8,4.4h4.776v12.98a4.826,4.826,0,0,0,4.281,4.788V42.861Z" transform="translate(-153.19 -37.206)" fill="#009ece"/>
    <path id="패스_3826" data-name="패스 3826" d="M200.467,3.15H181.274a4.825,4.825,0,0,0-4.8,4.4h28.792a4.825,4.825,0,0,0-4.8-4.4" transform="translate(-153.19 -2.734)" fill="#009ece"/>
    <path id="패스_3827" data-name="패스 3827" d="M287.853,65.049a4.823,4.823,0,0,0,4.522-4.805V47.263h4.776a4.824,4.824,0,0,0,4.8-4.4h-14.1Z" transform="translate(-249.874 -37.207)" fill="#009ece"/>
    <path id="패스_3828" data-name="패스 3828" d="M17.607,44.225v7.6a9.1,9.1,0,0,1-8.824,8.836H0a4.825,4.825,0,0,0,4.8,4.4H9.023A13,13,0,0,0,22.008,52.078V42.862H18.97a1.364,1.364,0,0,0-1.363,1.363" transform="translate(-0.001 -37.207)" fill="#009ece"/>
    <path id="패스_3829" data-name="패스 3829" d="M16.768,14.608V7.018a2.2,2.2,0,0,1,2.2-2.2h3.038a4.82,4.82,0,0,0-9.641,0V14.3a4.056,4.056,0,0,1-3.915,3.915H4.8a4.825,4.825,0,0,0-4.8,4.4H8.77a8.256,8.256,0,0,0,8-8.01" fill="#009ece"/>
    <path id="패스_3830" data-name="패스 3830" d="M430.08,5.588l-8.971,16.579c-.443.826-1.132,2.1-1.211,2.234a1.871,1.871,0,0,1-.667.684,1.421,1.421,0,0,1-.725.181h-.011a1.6,1.6,0,0,1-.736-.181,1.874,1.874,0,0,1-.667-.684c-.08-.131-.768-1.408-1.212-2.235l-5.87-10.846a3.215,3.215,0,0,0-3.138-1.652h-2.854l.009.838h2.845a2.362,2.362,0,0,1,2.4,1.214l5.868,10.844c.114.212,1.117,2.079,1.232,2.271a2.705,2.705,0,0,0,.961.974,2.434,2.434,0,0,0,1.158.3h.119v0a2.215,2.215,0,0,0,1.041-.294,2.715,2.715,0,0,0,.961-.974c.115-.192,1.118-2.058,1.231-2.269l8.971-16.578Z" transform="translate(-350.714 -4.851)" fill="#fff"/>
    <path id="패스_3831" data-name="패스 3831" d="M191.169,59.534V37.347h14.1v-.838H176.473v.838h13.857v22.17Z" transform="translate(-153.19 -31.692)" fill="#fff"/>
    <path id="패스_3832" data-name="패스 3832" d="M0,54.309H8.77a8.256,8.256,0,0,0,8-8.01v-7.59a2.2,2.2,0,0,1,2.2-2.2h3.038v.838H18.969a1.365,1.365,0,0,0-1.363,1.363v7.6a9.1,9.1,0,0,1-8.824,8.836H0Z" transform="translate(0 -31.691)" fill="#fff"/>
  </g>
</svg>
